<mxfile host="app.diagrams.net" agent="Mozilla/5.0 (Windows NT 10.0; Win64; x64) AppleWebKit/537.36 (KHTML, like Gecko) Chrome/131.0.0.0 Safari/537.36 Edg/131.0.0.0" version="26.1.1" pages="3">
  <diagram id="prtHgNgQTEPvFCAcTncT" name="Page-1">
    <mxGraphModel dx="3677" dy="1932" grid="1" gridSize="10" guides="1" tooltips="1" connect="1" arrows="1" fold="1" page="1" pageScale="1" pageWidth="827" pageHeight="1169" math="0" shadow="0">
      <root>
        <mxCell id="0" />
        <mxCell id="1" parent="0" />
        <mxCell id="ab4J2Q8Bm98FkFcb3cxl-39" value="展示层" style="whiteSpace=wrap;strokeWidth=2;fillColor=#f8cecc;strokeColor=#b85450;rounded=1;fontSize=25;" vertex="1" parent="1">
          <mxGeometry x="870" y="750" width="930" height="241" as="geometry" />
        </mxCell>
        <mxCell id="ab4J2Q8Bm98FkFcb3cxl-40" value="服务层" style="whiteSpace=wrap;strokeWidth=2;fillColor=#fff2cc;strokeColor=#d6b656;fontSize=25;rounded=1;" vertex="1" parent="1">
          <mxGeometry x="860" y="494" width="940" height="226" as="geometry" />
        </mxCell>
        <mxCell id="ab4J2Q8Bm98FkFcb3cxl-41" value="数据层" style="whiteSpace=wrap;strokeWidth=2;fillColor=#d5e8d4;strokeColor=#82b366;fontSize=25;rounded=1;align=center;" vertex="1" parent="1">
          <mxGeometry x="860" y="120" width="935" height="312" as="geometry" />
        </mxCell>
        <mxCell id="ab4J2Q8Bm98FkFcb3cxl-42" value="教务系统" style="whiteSpace=wrap;strokeWidth=2;rounded=1;" vertex="1" parent="1">
          <mxGeometry x="891" y="181" width="124" height="54" as="geometry" />
        </mxCell>
        <mxCell id="ab4J2Q8Bm98FkFcb3cxl-43" value="资源平台" style="whiteSpace=wrap;strokeWidth=2;rounded=1;" vertex="1" parent="1">
          <mxGeometry x="1065" y="181" width="124" height="54" as="geometry" />
        </mxCell>
        <mxCell id="ab4J2Q8Bm98FkFcb3cxl-44" value="直播日志" style="whiteSpace=wrap;strokeWidth=2;rounded=1;" vertex="1" parent="1">
          <mxGeometry x="1285" y="181" width="124" height="54" as="geometry" />
        </mxCell>
        <mxCell id="ab4J2Q8Bm98FkFcb3cxl-45" value="MySQL Cluster&#xa;事务数据存储" style="strokeWidth=2;shape=process;whiteSpace=wrap;size=0.04;rounded=1;" vertex="1" parent="1">
          <mxGeometry x="1501" y="344" width="231" height="63" as="geometry" />
        </mxCell>
        <mxCell id="ab4J2Q8Bm98FkFcb3cxl-46" value="Hadoop+Hive&#xa;TB级数据湖" style="strokeWidth=2;shape=process;whiteSpace=wrap;size=0.04;rounded=1;" vertex="1" parent="1">
          <mxGeometry x="948" y="356" width="222" height="39" as="geometry" />
        </mxCell>
        <mxCell id="ab4J2Q8Bm98FkFcb3cxl-47" value="Flink实时计算&#xa;延迟≤5秒" style="strokeWidth=2;shape=process;whiteSpace=wrap;size=0.04;glass=0;rounded=1;" vertex="1" parent="1">
          <mxGeometry x="1243" y="356" width="209" height="39" as="geometry" />
        </mxCell>
        <mxCell id="ab4J2Q8Bm98FkFcb3cxl-48" value="SpringCloud微服务集群" style="strokeWidth=2;shape=process;whiteSpace=wrap;size=0.04;rounded=1;" vertex="1" parent="1">
          <mxGeometry x="1202" y="519" width="196" height="39" as="geometry" />
        </mxCell>
        <mxCell id="ab4J2Q8Bm98FkFcb3cxl-49" value="Kafka消息队列" style="strokeWidth=2;shape=process;whiteSpace=wrap;size=0.04;rounded=1;" vertex="1" parent="1">
          <mxGeometry x="1401" y="656" width="135" height="39" as="geometry" />
        </mxCell>
        <mxCell id="ab4J2Q8Bm98FkFcb3cxl-50" value="Redis热点缓存" style="strokeWidth=2;shape=process;whiteSpace=wrap;size=0.04;rounded=1;" vertex="1" parent="1">
          <mxGeometry x="1586" y="656" width="132" height="39" as="geometry" />
        </mxCell>
        <mxCell id="ab4J2Q8Bm98FkFcb3cxl-51" value="Vue3+ECharts&#xa;动态图表" style="strokeWidth=2;shape=process;whiteSpace=wrap;size=0.04;rounded=1;" vertex="1" parent="1">
          <mxGeometry x="1084" y="785" width="206" height="39" as="geometry" />
        </mxCell>
        <mxCell id="ab4J2Q8Bm98FkFcb3cxl-52" value="Three.js&#xa;4K大屏渲染" style="strokeWidth=2;shape=process;whiteSpace=wrap;size=0.04;rounded=1;" vertex="1" parent="1">
          <mxGeometry x="1435" y="785" width="187" height="39" as="geometry" />
        </mxCell>
        <mxCell id="ab4J2Q8Bm98FkFcb3cxl-53" value="Web浏览器" style="whiteSpace=wrap;strokeWidth=2;rounded=1;" vertex="1" parent="1">
          <mxGeometry x="1084" y="921" width="139" height="54" as="geometry" />
        </mxCell>
        <mxCell id="ab4J2Q8Bm98FkFcb3cxl-54" value="移动端H5" style="whiteSpace=wrap;strokeWidth=2;rounded=1;" vertex="1" parent="1">
          <mxGeometry x="1273" y="921" width="127" height="54" as="geometry" />
        </mxCell>
        <mxCell id="ab4J2Q8Bm98FkFcb3cxl-55" value="监控大屏" style="whiteSpace=wrap;strokeWidth=2;rounded=1;" vertex="1" parent="1">
          <mxGeometry x="1466" y="921" width="124" height="54" as="geometry" />
        </mxCell>
        <mxCell id="ab4J2Q8Bm98FkFcb3cxl-56" value="������ 设计原则：&#xa;    - 高效性：分布式存储+并行计算&#xa;    - 安全性：AES-256加密传输" style="whiteSpace=wrap;strokeWidth=2;fillColor=#dae8fc;strokeColor=#6c8ebf;" vertex="1" parent="1">
          <mxGeometry x="1850" y="218" width="260" height="126" as="geometry" />
        </mxCell>
        <mxCell id="ab4J2Q8Bm98FkFcb3cxl-57" value="ETL抽取" style="curved=1;startArrow=none;endArrow=block;exitX=0.5;exitY=1;entryX=0.36;entryY=-0.01;rounded=0;" edge="1" parent="1" source="ab4J2Q8Bm98FkFcb3cxl-42" target="ab4J2Q8Bm98FkFcb3cxl-46">
          <mxGeometry relative="1" as="geometry">
            <Array as="points">
              <mxPoint x="953" y="307" />
            </Array>
          </mxGeometry>
        </mxCell>
        <mxCell id="ab4J2Q8Bm98FkFcb3cxl-58" value="API同步" style="curved=1;startArrow=none;endArrow=block;exitX=0.5;exitY=1;entryX=0.59;entryY=-0.01;rounded=0;" edge="1" parent="1" source="ab4J2Q8Bm98FkFcb3cxl-43" target="ab4J2Q8Bm98FkFcb3cxl-46">
          <mxGeometry relative="1" as="geometry">
            <Array as="points">
              <mxPoint x="1127" y="307" />
            </Array>
          </mxGeometry>
        </mxCell>
        <mxCell id="ab4J2Q8Bm98FkFcb3cxl-59" value="实时埋点" style="curved=1;startArrow=none;endArrow=block;exitX=0.5;exitY=1;entryX=0.5;entryY=-0.01;rounded=0;strokeColor=default;labelBackgroundColor=default;labelBorderColor=none;" edge="1" parent="1" source="ab4J2Q8Bm98FkFcb3cxl-44" target="ab4J2Q8Bm98FkFcb3cxl-47">
          <mxGeometry x="0.2397" relative="1" as="geometry">
            <Array as="points" />
            <mxPoint as="offset" />
          </mxGeometry>
        </mxCell>
        <mxCell id="ab4J2Q8Bm98FkFcb3cxl-60" value="批量数据" style="curved=1;startArrow=none;endArrow=block;exitX=0.5;exitY=0.99;entryX=0;entryY=0.12;rounded=0;" edge="1" parent="1" source="ab4J2Q8Bm98FkFcb3cxl-46" target="ab4J2Q8Bm98FkFcb3cxl-48">
          <mxGeometry x="0.0769" y="2" relative="1" as="geometry">
            <Array as="points">
              <mxPoint x="1059" y="470" />
              <mxPoint x="1110" y="524" />
              <mxPoint x="1160" y="538" />
            </Array>
            <mxPoint as="offset" />
          </mxGeometry>
        </mxCell>
        <mxCell id="ab4J2Q8Bm98FkFcb3cxl-61" value="流式数据" style="curved=1;startArrow=none;endArrow=block;exitX=0.5;exitY=0.99;entryX=0.75;entryY=0;rounded=0;entryDx=0;entryDy=0;" edge="1" parent="1" source="ab4J2Q8Bm98FkFcb3cxl-47" target="ab4J2Q8Bm98FkFcb3cxl-48">
          <mxGeometry relative="1" as="geometry">
            <Array as="points" />
          </mxGeometry>
        </mxCell>
        <mxCell id="ab4J2Q8Bm98FkFcb3cxl-62" value="事务查询" style="curved=1;startArrow=none;endArrow=block;exitX=0.5;exitY=0.99;entryX=1;entryY=0.09;rounded=0;" edge="1" parent="1" source="ab4J2Q8Bm98FkFcb3cxl-45" target="ab4J2Q8Bm98FkFcb3cxl-48">
          <mxGeometry relative="1" as="geometry">
            <Array as="points">
              <mxPoint x="1570" y="494" />
            </Array>
          </mxGeometry>
        </mxCell>
        <mxCell id="ab4J2Q8Bm98FkFcb3cxl-63" value="异步处理" style="curved=1;startArrow=none;endArrow=block;exitX=0.8;exitY=1;entryX=0.5;entryY=-0.01;rounded=0;" edge="1" parent="1" source="ab4J2Q8Bm98FkFcb3cxl-48" target="ab4J2Q8Bm98FkFcb3cxl-49">
          <mxGeometry relative="1" as="geometry">
            <Array as="points">
              <mxPoint x="1469" y="594" />
            </Array>
          </mxGeometry>
        </mxCell>
        <mxCell id="ab4J2Q8Bm98FkFcb3cxl-64" value="缓存加速" style="curved=1;startArrow=none;endArrow=block;exitX=1;exitY=0.9;entryX=0.51;entryY=-0.01;rounded=0;" edge="1" parent="1" source="ab4J2Q8Bm98FkFcb3cxl-48" target="ab4J2Q8Bm98FkFcb3cxl-50">
          <mxGeometry relative="1" as="geometry">
            <Array as="points">
              <mxPoint x="1653" y="594" />
            </Array>
          </mxGeometry>
        </mxCell>
        <mxCell id="ab4J2Q8Bm98FkFcb3cxl-65" value="API调用" style="curved=1;startArrow=none;endArrow=block;exitX=0;exitY=0.98;rounded=0;" edge="1" parent="1">
          <mxGeometry x="0.0978" y="7" relative="1" as="geometry">
            <Array as="points">
              <mxPoint x="1010" y="594" />
              <mxPoint x="1080" y="740" />
            </Array>
            <mxPoint x="1209" y="557.22" as="sourcePoint" />
            <mxPoint x="1173.3198847262252" y="785" as="targetPoint" />
            <mxPoint as="offset" />
          </mxGeometry>
        </mxCell>
        <mxCell id="ab4J2Q8Bm98FkFcb3cxl-66" value="WebSocket" style="curved=1;startArrow=none;endArrow=block;exitX=0.13;exitY=1;entryX=0.437;entryY=0.091;rounded=0;entryDx=0;entryDy=0;entryPerimeter=0;" edge="1" parent="1" source="ab4J2Q8Bm98FkFcb3cxl-48" target="ab4J2Q8Bm98FkFcb3cxl-52">
          <mxGeometry x="0.0226" y="22" relative="1" as="geometry">
            <Array as="points">
              <mxPoint x="1094" y="594" />
              <mxPoint x="1240" y="730" />
            </Array>
            <mxPoint as="offset" />
          </mxGeometry>
        </mxCell>
        <mxCell id="ab4J2Q8Bm98FkFcb3cxl-67" value="响应式布局" style="curved=1;startArrow=none;endArrow=block;exitX=0.43;exitY=0.99;entryX=0.5;entryY=0.01;rounded=0;" edge="1" parent="1" source="ab4J2Q8Bm98FkFcb3cxl-51" target="ab4J2Q8Bm98FkFcb3cxl-53">
          <mxGeometry relative="1" as="geometry">
            <Array as="points">
              <mxPoint x="1153" y="849" />
            </Array>
          </mxGeometry>
        </mxCell>
        <mxCell id="ab4J2Q8Bm98FkFcb3cxl-68" value="自适应渲染" style="curved=1;startArrow=none;endArrow=block;exitX=0.82;exitY=0.99;entryX=0.5;entryY=0.01;rounded=0;" edge="1" parent="1" source="ab4J2Q8Bm98FkFcb3cxl-51" target="ab4J2Q8Bm98FkFcb3cxl-54">
          <mxGeometry relative="1" as="geometry">
            <Array as="points">
              <mxPoint x="1336" y="849" />
            </Array>
          </mxGeometry>
        </mxCell>
        <mxCell id="ab4J2Q8Bm98FkFcb3cxl-69" value="HDMI输出" style="curved=1;startArrow=none;endArrow=block;exitX=0.5;exitY=0.99;entryX=0.5;entryY=0.01;rounded=0;" edge="1" parent="1" source="ab4J2Q8Bm98FkFcb3cxl-52" target="ab4J2Q8Bm98FkFcb3cxl-55">
          <mxGeometry relative="1" as="geometry">
            <Array as="points" />
          </mxGeometry>
        </mxCell>
      </root>
    </mxGraphModel>
  </diagram>
  <diagram id="ucn1gH3l0LsRAdNxAfSF" name="第 2 页">
    <mxGraphModel dx="3217" dy="1380" grid="1" gridSize="10" guides="1" tooltips="1" connect="1" arrows="1" fold="1" page="1" pageScale="1" pageWidth="827" pageHeight="1169" math="0" shadow="0">
      <root>
        <mxCell id="0" />
        <mxCell id="1" parent="0" />
        <mxCell id="9y0CuGgbacPIToFhBqd3-1" value="展示交互" style="whiteSpace=wrap;strokeWidth=2;verticalAlign=top;fontSize=30;fillColor=#d5e8d4;strokeColor=#82b366;" vertex="1" parent="1">
          <mxGeometry x="980" y="490" width="544" height="529" as="geometry" />
        </mxCell>
        <mxCell id="9y0CuGgbacPIToFhBqd3-2" value="服务治理" style="whiteSpace=wrap;strokeWidth=2;verticalAlign=top;fontSize=30;align=left;fillColor=#e1d5e7;strokeColor=#9673a6;" vertex="1" parent="1">
          <mxGeometry x="204" y="480" width="580" height="530" as="geometry" />
        </mxCell>
        <mxCell id="9y0CuGgbacPIToFhBqd3-3" value="数据采集" style="whiteSpace=wrap;strokeWidth=2;verticalAlign=top;fontSize=30;fillColor=#dae8fc;strokeColor=#6c8ebf;" vertex="1" parent="1">
          <mxGeometry x="534" y="20" width="651" height="387" as="geometry" />
        </mxCell>
        <mxCell id="9y0CuGgbacPIToFhBqd3-4" value="������ 教务系统" style="shape=cylinder3;boundedLbl=1;backgroundOutline=1;size=10;strokeWidth=2;whiteSpace=wrap;shadow=1;" vertex="1" parent="1">
          <mxGeometry x="829" y="85" width="106" height="73" as="geometry" />
        </mxCell>
        <mxCell id="9y0CuGgbacPIToFhBqd3-5" value="ETL" style="whiteSpace=wrap;strokeWidth=2;shadow=0;rounded=1;" vertex="1" parent="1">
          <mxGeometry x="839" y="300" width="86" height="54" as="geometry" />
        </mxCell>
        <mxCell id="9y0CuGgbacPIToFhBqd3-6" value="������ 资源平台" style="shape=cylinder3;boundedLbl=1;backgroundOutline=1;size=10;strokeWidth=2;whiteSpace=wrap;shadow=1;" vertex="1" parent="1">
          <mxGeometry x="1028" y="85" width="106" height="73" as="geometry" />
        </mxCell>
        <mxCell id="9y0CuGgbacPIToFhBqd3-7" value="API" style="whiteSpace=wrap;strokeWidth=2;rounded=1;" vertex="1" parent="1">
          <mxGeometry x="1039" y="300" width="83" height="54" as="geometry" />
        </mxCell>
        <mxCell id="9y0CuGgbacPIToFhBqd3-8" value="������ 用户行为日志" style="shape=cylinder3;boundedLbl=1;backgroundOutline=1;size=10;strokeWidth=2;whiteSpace=wrap;shadow=1;" vertex="1" parent="1">
          <mxGeometry x="608" y="83" width="138" height="78" as="geometry" />
        </mxCell>
        <mxCell id="9y0CuGgbacPIToFhBqd3-9" value="⚡ Flink计算引擎&#xa;(延迟≤5秒)" style="shape=cylinder3;boundedLbl=1;backgroundOutline=1;size=10;strokeWidth=2;whiteSpace=wrap;shadow=1;" vertex="1" parent="1">
          <mxGeometry x="569" y="272" width="215" height="110" as="geometry" />
        </mxCell>
        <mxCell id="9y0CuGgbacPIToFhBqd3-10" value="▨ Hadoop数据湖&#xa;(TB级存储)" style="shape=cylinder3;boundedLbl=1;backgroundOutline=1;size=10;strokeWidth=2;whiteSpace=wrap;shadow=1;" vertex="1" parent="1">
          <mxGeometry x="444" y="505" width="215" height="110" as="geometry" />
        </mxCell>
        <mxCell id="9y0CuGgbacPIToFhBqd3-11" value="������ Spring Cloud微服务&#xa;• 资源统计&#xa;• 访问分析&#xa;• 大屏配置" style="shape=cylinder3;boundedLbl=1;backgroundOutline=1;size=10;strokeWidth=2;whiteSpace=wrap;shadow=1;gradientColor=none;" vertex="1" parent="1">
          <mxGeometry x="300" y="665" width="215" height="134" as="geometry" />
        </mxCell>
        <mxCell id="9y0CuGgbacPIToFhBqd3-12" value="������ Kafka队列&#xa;《削峰填谷》" style="shape=cylinder3;boundedLbl=1;backgroundOutline=1;size=10;strokeWidth=2;whiteSpace=wrap;shadow=1;" vertex="1" parent="1">
          <mxGeometry x="251" y="875" width="215" height="110" as="geometry" />
        </mxCell>
        <mxCell id="9y0CuGgbacPIToFhBqd3-13" value="������ Redis缓存&#xa;《热点数据》" style="shape=cylinder3;boundedLbl=1;backgroundOutline=1;size=10;strokeWidth=2;whiteSpace=wrap;shadow=1;" vertex="1" parent="1">
          <mxGeometry x="534" y="875" width="215" height="110" as="geometry" />
        </mxCell>
        <mxCell id="9y0CuGgbacPIToFhBqd3-14" value="������ API网关" style="shape=cylinder3;boundedLbl=1;backgroundOutline=1;size=10;strokeWidth=2;whiteSpace=wrap;shadow=1;" vertex="1" parent="1">
          <mxGeometry x="1114" y="534" width="96" height="72" as="geometry" />
        </mxCell>
        <mxCell id="9y0CuGgbacPIToFhBqd3-15" value="������ Vue3+ECharts&#xa;(动态图表)" style="shape=cylinder3;boundedLbl=1;backgroundOutline=1;size=10;strokeWidth=2;whiteSpace=wrap;shadow=1;" vertex="1" parent="1">
          <mxGeometry x="1015" y="723" width="215" height="110" as="geometry" />
        </mxCell>
        <mxCell id="9y0CuGgbacPIToFhBqd3-16" value="������ Three.js&#xa;(4K渲染引擎)" style="shape=cylinder3;boundedLbl=1;backgroundOutline=1;size=10;strokeWidth=2;whiteSpace=wrap;shadow=1;" vertex="1" parent="1">
          <mxGeometry x="1280" y="735" width="209" height="86" as="geometry" />
        </mxCell>
        <mxCell id="9y0CuGgbacPIToFhBqd3-17" value="������ 教学数据大屏&#xa;《4K分辨率》" style="shape=cylinder3;boundedLbl=1;backgroundOutline=1;size=10;strokeWidth=2;whiteSpace=wrap;shadow=1;" vertex="1" parent="1">
          <mxGeometry x="1055" y="883" width="215" height="110" as="geometry" />
        </mxCell>
        <mxCell id="9y0CuGgbacPIToFhBqd3-18" value="������ 性能优化方案：&#xa;    • MySQL双主热备架构&#xa;    • Nginx七层负载均衡&#xa;    • 动态扩缩容机制" style="shape=cylinder3;boundedLbl=1;backgroundOutline=1;size=10;strokeWidth=2;whiteSpace=wrap;shadow=1;fillColor=#fff2cc;strokeColor=#d6b656;" vertex="1" parent="1">
          <mxGeometry x="1221" y="45" width="170" height="154" as="geometry" />
        </mxCell>
        <mxCell id="9y0CuGgbacPIToFhBqd3-19" value="ETL抽取&#xa;《结构化数据》" style="curved=1;startArrow=none;endArrow=block;exitX=0.5;exitY=1.01;entryX=0.49;entryY=0;rounded=0;" edge="1" parent="1" source="9y0CuGgbacPIToFhBqd3-4" target="9y0CuGgbacPIToFhBqd3-5">
          <mxGeometry relative="1" as="geometry">
            <Array as="points" />
          </mxGeometry>
        </mxCell>
        <mxCell id="9y0CuGgbacPIToFhBqd3-20" value="API同步&#xa;《增量数据》" style="curved=1;startArrow=none;endArrow=block;exitX=0.5;exitY=1.01;entryX=0.5;entryY=0;rounded=0;" edge="1" parent="1" source="9y0CuGgbacPIToFhBqd3-6" target="9y0CuGgbacPIToFhBqd3-7">
          <mxGeometry relative="1" as="geometry">
            <Array as="points" />
          </mxGeometry>
        </mxCell>
        <mxCell id="9y0CuGgbacPIToFhBqd3-21" value="实时埋点&#xa;《Flink消费》" style="curved=1;startArrow=none;endArrow=block;exitX=0.5;exitY=1;entryX=0.5;entryY=0;rounded=0;" edge="1" parent="1" source="9y0CuGgbacPIToFhBqd3-8" target="9y0CuGgbacPIToFhBqd3-9">
          <mxGeometry relative="1" as="geometry">
            <Array as="points" />
          </mxGeometry>
        </mxCell>
        <mxCell id="9y0CuGgbacPIToFhBqd3-22" value="存储&#xa;《HDFS集群》" style="curved=1;startArrow=none;endArrow=block;exitX=0.49;exitY=1;entryX=1.006;entryY=0.409;rounded=0;entryDx=0;entryDy=0;entryPerimeter=0;" edge="1" parent="1" source="9y0CuGgbacPIToFhBqd3-5" target="9y0CuGgbacPIToFhBqd3-10">
          <mxGeometry x="-0.124" y="-41" relative="1" as="geometry">
            <Array as="points">
              <mxPoint x="882" y="480" />
            </Array>
            <mxPoint as="offset" />
          </mxGeometry>
        </mxCell>
        <mxCell id="9y0CuGgbacPIToFhBqd3-25" value="" style="curved=1;startArrow=none;endArrow=block;exitX=0.5;exitY=1;entryX=0.99;entryY=0;rounded=0;" edge="1" parent="1" source="9y0CuGgbacPIToFhBqd3-10" target="9y0CuGgbacPIToFhBqd3-11">
          <mxGeometry relative="1" as="geometry">
            <Array as="points">
              <mxPoint x="551" y="640" />
            </Array>
          </mxGeometry>
        </mxCell>
        <mxCell id="9y0CuGgbacPIToFhBqd3-26" value="" style="curved=1;startArrow=none;endArrow=block;exitX=0.33;exitY=1.01;entryX=0.5;entryY=0;rounded=0;" edge="1" parent="1" source="9y0CuGgbacPIToFhBqd3-11" target="9y0CuGgbacPIToFhBqd3-12">
          <mxGeometry relative="1" as="geometry">
            <Array as="points">
              <mxPoint x="358" y="825" />
            </Array>
          </mxGeometry>
        </mxCell>
        <mxCell id="9y0CuGgbacPIToFhBqd3-27" value="" style="curved=1;startArrow=none;endArrow=block;exitX=1;exitY=0.82;entryX=0.5;entryY=0;rounded=0;" edge="1" parent="1" source="9y0CuGgbacPIToFhBqd3-11" target="9y0CuGgbacPIToFhBqd3-13">
          <mxGeometry relative="1" as="geometry">
            <Array as="points">
              <mxPoint x="641" y="825" />
            </Array>
          </mxGeometry>
        </mxCell>
        <mxCell id="9y0CuGgbacPIToFhBqd3-28" value="RESTful API&#xa;《JWT鉴权》" style="curved=1;startArrow=none;endArrow=block;exitX=0.32;exitY=1;entryX=0.5;entryY=0;rounded=0;" edge="1" parent="1" source="9y0CuGgbacPIToFhBqd3-14" target="9y0CuGgbacPIToFhBqd3-15">
          <mxGeometry relative="1" as="geometry">
            <Array as="points">
              <mxPoint x="1123" y="650" />
            </Array>
          </mxGeometry>
        </mxCell>
        <mxCell id="9y0CuGgbacPIToFhBqd3-29" value="WebSocket&#xa;《60fps》" style="curved=1;startArrow=none;endArrow=block;exitX=1;exitY=0.74;entryX=0.5;entryY=0;rounded=0;" edge="1" parent="1" source="9y0CuGgbacPIToFhBqd3-14" target="9y0CuGgbacPIToFhBqd3-16">
          <mxGeometry relative="1" as="geometry">
            <Array as="points">
              <mxPoint x="1385" y="650" />
            </Array>
          </mxGeometry>
        </mxCell>
        <mxCell id="9y0CuGgbacPIToFhBqd3-30" value="" style="curved=1;startArrow=none;endArrow=block;exitX=0.5;exitY=1;entryX=0.37;entryY=0;rounded=0;" edge="1" parent="1" source="9y0CuGgbacPIToFhBqd3-15" target="9y0CuGgbacPIToFhBqd3-17">
          <mxGeometry relative="1" as="geometry">
            <Array as="points">
              <mxPoint x="1123" y="858" />
            </Array>
          </mxGeometry>
        </mxCell>
        <mxCell id="9y0CuGgbacPIToFhBqd3-31" value="" style="curved=1;startArrow=none;endArrow=block;exitX=0.5;exitY=1;entryX=1;entryY=0.15;rounded=0;" edge="1" parent="1" source="9y0CuGgbacPIToFhBqd3-16" target="9y0CuGgbacPIToFhBqd3-17">
          <mxGeometry relative="1" as="geometry">
            <Array as="points">
              <mxPoint x="1385" y="858" />
            </Array>
          </mxGeometry>
        </mxCell>
        <mxCell id="9y0CuGgbacPIToFhBqd3-35" style="edgeStyle=orthogonalEdgeStyle;curved=1;rounded=0;orthogonalLoop=1;jettySize=auto;html=1;exitX=1;exitY=0.5;exitDx=0;exitDy=0;exitPerimeter=0;entryX=0.145;entryY=1;entryDx=0;entryDy=-2.9;entryPerimeter=0;fontFamily=Helvetica;fontSize=12;fontColor=default;" edge="1" parent="1" source="9y0CuGgbacPIToFhBqd3-11" target="9y0CuGgbacPIToFhBqd3-14">
          <mxGeometry relative="1" as="geometry" />
        </mxCell>
        <mxCell id="9y0CuGgbacPIToFhBqd3-36" style="edgeStyle=orthogonalEdgeStyle;curved=1;rounded=0;orthogonalLoop=1;jettySize=auto;html=1;exitX=0.145;exitY=1;exitDx=0;exitDy=-2.9;exitPerimeter=0;entryX=0.061;entryY=0.019;entryDx=0;entryDy=0;entryPerimeter=0;fontFamily=Helvetica;fontSize=12;fontColor=default;" edge="1" parent="1" source="9y0CuGgbacPIToFhBqd3-9" target="9y0CuGgbacPIToFhBqd3-11">
          <mxGeometry relative="1" as="geometry" />
        </mxCell>
        <mxCell id="9y0CuGgbacPIToFhBqd3-37" style="edgeStyle=orthogonalEdgeStyle;curved=1;rounded=0;orthogonalLoop=1;jettySize=auto;html=1;exitX=0.5;exitY=1;exitDx=0;exitDy=0;entryX=1;entryY=0.5;entryDx=0;entryDy=0;entryPerimeter=0;fontFamily=Helvetica;fontSize=12;fontColor=default;" edge="1" parent="1" source="9y0CuGgbacPIToFhBqd3-7" target="9y0CuGgbacPIToFhBqd3-10">
          <mxGeometry relative="1" as="geometry" />
        </mxCell>
      </root>
    </mxGraphModel>
  </diagram>
  <diagram id="sLNq25Rrjgf9lGV4Oic8" name="第 3 页">
    <mxGraphModel dx="3642" dy="2377" grid="1" gridSize="10" guides="1" tooltips="1" connect="1" arrows="1" fold="1" page="1" pageScale="1" pageWidth="827" pageHeight="1169" math="0" shadow="0">
      <root>
        <mxCell id="0" />
        <mxCell id="1" parent="0" />
        <UserObject label="" plantUmlData="{&#xa;  &quot;data&quot;: &quot;@startuml\nskinparam backgroundColor #F5F5F5\nskinparam componentStyle rectangle\nskinparam defaultFontName \&quot;Microsoft YaHei\&quot;\ntitle 日志采集与分析系统架构\n\nrectangle \&quot;数据源层\&quot; as L0 {\n  component \&quot;用户行为日志\&quot; &lt;&lt;数据源&gt;&gt; #F0FFF0\n  component \&quot;爬虫访问日志\&quot; &lt;&lt;数据源&gt;&gt; #F0FFF0\n  component \&quot;安全审计日志\&quot; &lt;&lt;数据源&gt;&gt; #F0FFF0\n}\n\nrectangle \&quot;采集处理层\&quot; as L1 {\n  component \&quot;Logstash 7.16\&quot; &lt;&lt;采集器&gt;&gt; {\n    database \&quot;自定义解析规则\&quot; #FFE4E1\n    note right: 正则表达式过滤\\n无效数据率≥98%\n  }\n  \n  component \&quot;Kafka队列\&quot; &lt;&lt;缓冲&gt;&gt; #E6E6FA {\n    database \&quot;峰值处理\\n10万条/秒\&quot; #FFFACD\n  }\n}\n\nrectangle \&quot;分析存储层\&quot; as L2 {\n  component \&quot;Elasticsearch 7.17\&quot; &lt;&lt;存储&gt;&gt; #E0FFFF {\n    database \&quot;1亿日志/天\&quot; #FFFACD\n  }\n  \n  component \&quot;分析引擎\&quot; &lt;&lt;处理&gt;&gt; #FFE4B5 {\n    node \&quot;角色分布分析\&quot; #FFDAB9\n    node \&quot;终端识别\\nUAParser.js\&quot; #FFDAB9\n    node \&quot;访问路径还原\&quot; #FFDAB9\n  }\n}\n\nrectangle \&quot;安全审计层\&quot; as L3 {\n  component \&quot;双因素认证\&quot; &lt;&lt;安全&gt;&gt; #FFB6C1 {\n    database \&quot;短信验证码\\n动态令牌\&quot; #FFFACD\n  }\n  \n  component \&quot;Hadoop集群\&quot; &lt;&lt;存储&gt;&gt; #D8BFD8 {\n    database \&quot;审计日志\\n保留≥3年\&quot; #FFFACD\n  }\n}\n\nL0 --&gt; L1 : 原始日志输入\nL1 --&gt; L2 : 结构化数据存储\nL2 --&gt; L3 : 安全审计处理\n\nnote bottom\n&lt;color:#4682B4&gt;核心技术指标：\n1. 异常流量识别准确率≥98%\n2. 支持3000+设备类型识别\n3. 审计日志全量加密存储\nend note\n@enduml&quot;,&#xa;  &quot;format&quot;: &quot;svg&quot;&#xa;}" id="xZqk8e-lIrwgvIifPAtR-1">
          <mxCell style="shape=image;noLabel=1;verticalAlign=top;aspect=fixed;imageAspect=0;image=data:image/svg+xml,PD94bWwgdmVyc2lvbj0iMS4wIiBlbmNvZGluZz0idXMtYXNjaWkiIHN0YW5kYWxvbmU9Im5vIj8+PHN2ZyB4bWxucz0iaHR0cDovL3d3dy53My5vcmcvMjAwMC9zdmciIHhtbG5zOnhsaW5rPSJodHRwOi8vd3d3LnczLm9yZy8xOTk5L3hsaW5rIiBjb250ZW50U3R5bGVUeXBlPSJ0ZXh0L2NzcyIgaGVpZ2h0PSIxMDI3cHgiIHByZXNlcnZlQXNwZWN0UmF0aW89Im5vbmUiIHN0eWxlPSJ3aWR0aDoxMDU1cHg7aGVpZ2h0OjEwMjdweDtiYWNrZ3JvdW5kOiNGNUY1RjU7IiB2ZXJzaW9uPSIxLjEiIHZpZXdCb3g9IjAgMCAxMDU1IDEwMjciIHdpZHRoPSIxMDU1cHgiIHpvb21BbmRQYW49Im1hZ25pZnkiPjxkZWZzLz48Zz48cmVjdCBmaWxsPSIjRjVGNUY1IiBoZWlnaHQ9IjEwMjciIHN0eWxlPSJzdHJva2U6bm9uZTtzdHJva2Utd2lkdGg6MS4wOyIgd2lkdGg9IjEwNTUiIHg9IjAiIHk9IjAiLz48dGV4dCBmaWxsPSIjMDAwMDAwIiBmb250LWZhbWlseT0iTWljcm9zb2Z0IFlhSGVpIiBmb250LXNpemU9IjE0IiBmb250LXdlaWdodD0iYm9sZCIgbGVuZ3RoQWRqdXN0PSJzcGFjaW5nIiB0ZXh0TGVuZ3RoPSIxNTQiIHg9IjQ0My41IiB5PSIyMy4yMzQ0Ij4mIzI2MDg1OyYjMjQ1MzU7JiMzNzMxOTsmIzM4NTk4OyYjMTk5ODI7JiMyMDk5ODsmIzI2NTEyOyYjMzE5OTU7JiMzMjQ3OTsmIzI2NTUwOyYjMjY1MDA7PC90ZXh0PjwhLS1jbHVzdGVyIEwwLS0+PGcgaWQ9ImNsdXN0ZXJfTDAiPjxyZWN0IGZpbGw9Im5vbmUiIGhlaWdodD0iMzM1LjUiIHJ4PSIyLjUiIHJ5PSIyLjUiIHN0eWxlPSJzdHJva2U6IzE4MTgxODtzdHJva2Utd2lkdGg6MS4wOyIgd2lkdGg9IjMxMCIgeD0iMTg4IiB5PSI0Mi45ODQ0Ii8+PHRleHQgZmlsbD0iIzAwMDAwMCIgZm9udC1mYW1pbHk9Ik1pY3Jvc29mdCBZYUhlaSIgZm9udC1zaXplPSIxNCIgZm9udC13ZWlnaHQ9ImJvbGQiIGxlbmd0aEFkanVzdD0ic3BhY2luZyIgdGV4dExlbmd0aD0iNTYiIHg9IjMxNSIgeT0iNTguMjE4OCI+JiMyNTk2ODsmIzI1NDU0OyYjMjgzMDQ7JiMyMzYxODs8L3RleHQ+PC9nPjwhLS1jbHVzdGVyIEwxLS0+PGcgaWQ9ImNsdXN0ZXJfTDEiPjxyZWN0IGZpbGw9Im5vbmUiIGhlaWdodD0iMjA0IiByeD0iMi41IiByeT0iMi41IiBzdHlsZT0ic3Ryb2tlOiMxODE4MTg7c3Ryb2tlLXdpZHRoOjEuMDsiIHdpZHRoPSI1MTEiIHg9IjUzOCIgeT0iMjAyLjk4NDQiLz48dGV4dCBmaWxsPSIjMDAwMDAwIiBmb250LWZhbWlseT0iTWljcm9zb2Z0IFlhSGVpIiBmb250LXNpemU9IjE0IiBmb250LXdlaWdodD0iYm9sZCIgbGVuZ3RoQWRqdXN0PSJzcGFjaW5nIiB0ZXh0TGVuZ3RoPSI3MCIgeD0iNzU4LjUiIHk9IjIxOC4yMTg4Ij4mIzM3MzE5OyYjMzg1OTg7JiMyMjc4ODsmIzI5NzAyOyYjMjM2MTg7PC90ZXh0PjwvZz48IS0tY2x1c3RlciBMb2dzdGFzaCA3LjE2LS0+PGcgaWQ9ImNsdXN0ZXJfTG9nc3Rhc2ggNy4xNiI+PHJlY3QgZmlsbD0ibm9uZSIgaGVpZ2h0PSIxMDgiIHJ4PSIyLjUiIHJ5PSIyLjUiIHN0eWxlPSJzdHJva2U6IzE4MTgxODtzdHJva2Utd2lkdGg6MS4wOyIgd2lkdGg9IjI5OSIgeD0iNzE4IiB5PSIyNTkuNDg0NCIvPjx0ZXh0IGZpbGw9IiMwMDAwMDAiIGZvbnQtZmFtaWx5PSJNaWNyb3NvZnQgWWFIZWkiIGZvbnQtc2l6ZT0iMTQiIGZvbnQtc3R5bGU9Iml0YWxpYyIgbGVuZ3RoQWRqdXN0PSJzcGFjaW5nIiB0ZXh0TGVuZ3RoPSI1OCIgeD0iODM4LjUiIHk9IjI3NC43MTg4Ij4mIzE3MTsmIzM3MzE5OyYjMzg1OTg7JiMyMjEyMDsmIzE4Nzs8L3RleHQ+PHRleHQgZmlsbD0iIzAwMDAwMCIgZm9udC1mYW1pbHk9Ik1pY3Jvc29mdCBZYUhlaSIgZm9udC1zaXplPSIxNCIgZm9udC13ZWlnaHQ9ImJvbGQiIGxlbmd0aEFkanVzdD0ic3BhY2luZyIgdGV4dExlbmd0aD0iOTEiIHg9IjgyMiIgeT0iMjg5LjcwMzEiPkxvZ3N0YXNoIDcuMTY8L3RleHQ+PC9nPjwhLS1jbHVzdGVyIEthZmthPz8tLT48ZyBpZD0iY2x1c3Rlcl9LYWZrYSYjMzg0MzE7JiMyMTAxNTsiPjxyZWN0IGZpbGw9IiNFNkU2RkEiIGhlaWdodD0iMTIzIiByeD0iMi41IiByeT0iMi41IiBzdHlsZT0ic3Ryb2tlOiMxODE4MTg7c3Ryb2tlLXdpZHRoOjEuMDsiIHdpZHRoPSIxMTYiIHg9IjU3OCIgeT0iMjUxLjk4NDQiLz48dGV4dCBmaWxsPSIjMDAwMDAwIiBmb250LWZhbWlseT0iTWljcm9zb2Z0IFlhSGVpIiBmb250LXNpemU9IjE0IiBmb250LXN0eWxlPSJpdGFsaWMiIGxlbmd0aEFkanVzdD0ic3BhY2luZyIgdGV4dExlbmd0aD0iNDQiIHg9IjYxNCIgeT0iMjY3LjIxODgiPiYjMTcxOyYjMzI1MzE7JiMyMDkxNDsmIzE4Nzs8L3RleHQ+PHRleHQgZmlsbD0iIzAwMDAwMCIgZm9udC1mYW1pbHk9Ik1pY3Jvc29mdCBZYUhlaSIgZm9udC1zaXplPSIxNCIgZm9udC13ZWlnaHQ9ImJvbGQiIGxlbmd0aEFkanVzdD0ic3BhY2luZyIgdGV4dExlbmd0aD0iNjMiIHg9IjYwNC41IiB5PSIyODIuMjAzMSI+S2Fma2EmIzM4NDMxOyYjMjEwMTU7PC90ZXh0PjwvZz48IS0tY2x1c3RlciBMMi0tPjxnIGlkPSJjbHVzdGVyX0wyIj48cmVjdCBmaWxsPSJub25lIiBoZWlnaHQ9IjQyMyIgcng9IjIuNSIgcnk9IjIuNSIgc3R5bGU9InN0cm9rZTojMTgxODE4O3N0cm9rZS13aWR0aDoxLjA7IiB3aWR0aD0iNTQ3IiB4PSI3IiB5PSI0NjkuOTg0NCIvPjx0ZXh0IGZpbGw9IiMwMDAwMDAiIGZvbnQtZmFtaWx5PSJNaWNyb3NvZnQgWWFIZWkiIGZvbnQtc2l6ZT0iMTQiIGZvbnQtd2VpZ2h0PSJib2xkIiBsZW5ndGhBZGp1c3Q9InNwYWNpbmciIHRleHRMZW5ndGg9IjcwIiB4PSIyNDUuNSIgeT0iNDg1LjIxODgiPiYjMjA5OTg7JiMyNjUxMjsmIzIzMzg0OyYjMjA2NDg7JiMyMzYxODs8L3RleHQ+PC9nPjwhLS1jbHVzdGVyIEVsYXN0aWNzZWFyY2ggNy4xNy0tPjxnIGlkPSJjbHVzdGVyX0VsYXN0aWNzZWFyY2ggNy4xNyI+PHJlY3QgZmlsbD0iI0UwRkZGRiIgaGVpZ2h0PSIxMDgiIHJ4PSIyLjUiIHJ5PSIyLjUiIHN0eWxlPSJzdHJva2U6IzE4MTgxODtzdHJva2Utd2lkdGg6MS4wOyIgd2lkdGg9IjE0MiIgeD0iMzcyIiB5PSI1MjYuOTg0NCIvPjx0ZXh0IGZpbGw9IiMwMDAwMDAiIGZvbnQtZmFtaWx5PSJNaWNyb3NvZnQgWWFIZWkiIGZvbnQtc2l6ZT0iMTQiIGZvbnQtc3R5bGU9Iml0YWxpYyIgbGVuZ3RoQWRqdXN0PSJzcGFjaW5nIiB0ZXh0TGVuZ3RoPSI0NCIgeD0iNDIxIiB5PSI1NDIuMjE4OCI+JiMxNzE7JiMyMzM4NDsmIzIwNjQ4OyYjMTg3OzwvdGV4dD48dGV4dCBmaWxsPSIjMDAwMDAwIiBmb250LWZhbWlseT0iTWljcm9zb2Z0IFlhSGVpIiBmb250LXNpemU9IjE0IiBmb250LXdlaWdodD0iYm9sZCIgbGVuZ3RoQWRqdXN0PSJzcGFjaW5nIiB0ZXh0TGVuZ3RoPSIxMjYiIHg9IjM4MCIgeT0iNTU3LjIwMzEiPkVsYXN0aWNzZWFyY2ggNy4xNzwvdGV4dD48L2c+PCEtLWNsdXN0ZXIgPz8/Py0tPjxnIGlkPSJjbHVzdGVyXyYjMjA5OTg7JiMyNjUxMjsmIzI0MzQxOyYjMjU4MDY7Ij48cmVjdCBmaWxsPSIjRkZFNEI1IiBoZWlnaHQ9IjM0MiIgcng9IjIuNSIgcnk9IjIuNSIgc3R5bGU9InN0cm9rZTojMTgxODE4O3N0cm9rZS13aWR0aDoxLjA7IiB3aWR0aD0iMzA5IiB4PSIzOSIgeT0iNTE4Ljk4NDQiLz48dGV4dCBmaWxsPSIjMDAwMDAwIiBmb250LWZhbWlseT0iTWljcm9zb2Z0IFlhSGVpIiBmb250LXNpemU9IjE0IiBmb250LXN0eWxlPSJpdGFsaWMiIGxlbmd0aEFkanVzdD0ic3BhY2luZyIgdGV4dExlbmd0aD0iNDQiIHg9IjE3MS41IiB5PSI1MzQuMjE4OCI+JiMxNzE7JiMyMjc4ODsmIzI5NzAyOyYjMTg3OzwvdGV4dD48dGV4dCBmaWxsPSIjMDAwMDAwIiBmb250LWZhbWlseT0iTWljcm9zb2Z0IFlhSGVpIiBmb250LXNpemU9IjE0IiBmb250LXdlaWdodD0iYm9sZCIgbGVuZ3RoQWRqdXN0PSJzcGFjaW5nIiB0ZXh0TGVuZ3RoPSI1NiIgeD0iMTY1LjUiIHk9IjU0OS4yMDMxIj4mIzIwOTk4OyYjMjY1MTI7JiMyNDM0MTsmIzI1ODA2OzwvdGV4dD48L2c+PCEtLWNsdXN0ZXIgTDMtLT48ZyBpZD0iY2x1c3Rlcl9MMyI+PHJlY3QgZmlsbD0ibm9uZSIgaGVpZ2h0PSIyMDQiIHJ4PSIyLjUiIHJ5PSIyLjUiIHN0eWxlPSJzdHJva2U6IzE4MTgxODtzdHJva2Utd2lkdGg6MS4wOyIgd2lkdGg9IjMyNiIgeD0iNTk0IiB5PSI2OTUuOTg0NCIvPjx0ZXh0IGZpbGw9IiMwMDAwMDAiIGZvbnQtZmFtaWx5PSJNaWNyb3NvZnQgWWFIZWkiIGZvbnQtc2l6ZT0iMTQiIGZvbnQtd2VpZ2h0PSJib2xkIiBsZW5ndGhBZGp1c3Q9InNwYWNpbmciIHRleHRMZW5ndGg9IjcwIiB4PSI3MjIiIHk9IjcxMS4yMTg4Ij4mIzIzNDMzOyYjMjA4NDA7JiMyMzQ1NzsmIzM1NzQ1OyYjMjM2MTg7PC90ZXh0PjwvZz48IS0tY2x1c3RlciA/Pz8/Py0tPjxnIGlkPSJjbHVzdGVyXyYjMjE0NTI7JiMyMjI0MDsmIzMyMDMyOyYjMzU3NDg7JiMzNTc3NzsiPjxyZWN0IGZpbGw9IiNGRkI2QzEiIGhlaWdodD0iMTIzIiByeD0iMi41IiByeT0iMi41IiBzdHlsZT0ic3Ryb2tlOiMxODE4MTg7c3Ryb2tlLXdpZHRoOjEuMDsiIHdpZHRoPSIxMjIiIHg9Ijc2NiIgeT0iNzQ0Ljk4NDQiLz48dGV4dCBmaWxsPSIjMDAwMDAwIiBmb250LWZhbWlseT0iTWljcm9zb2Z0IFlhSGVpIiBmb250LXNpemU9IjE0IiBmb250LXN0eWxlPSJpdGFsaWMiIGxlbmd0aEFkanVzdD0ic3BhY2luZyIgdGV4dExlbmd0aD0iNDQiIHg9IjgwNSIgeT0iNzYwLjIxODgiPiYjMTcxOyYjMjM0MzM7JiMyMDg0MDsmIzE4Nzs8L3RleHQ+PHRleHQgZmlsbD0iIzAwMDAwMCIgZm9udC1mYW1pbHk9Ik1pY3Jvc29mdCBZYUhlaSIgZm9udC1zaXplPSIxNCIgZm9udC13ZWlnaHQ9ImJvbGQiIGxlbmd0aEFkanVzdD0ic3BhY2luZyIgdGV4dExlbmd0aD0iNzAiIHg9Ijc5MiIgeT0iNzc1LjIwMzEiPiYjMjE0NTI7JiMyMjI0MDsmIzMyMDMyOyYjMzU3NDg7JiMzNTc3Nzs8L3RleHQ+PC9nPjwhLS1jbHVzdGVyIEhhZG9vcD8/LS0+PGcgaWQ9ImNsdXN0ZXJfSGFkb29wJiMzODU5ODsmIzMyNjc2OyI+PHJlY3QgZmlsbD0iI0Q4QkZEOCIgaGVpZ2h0PSIxMjMiIHJ4PSIyLjUiIHJ5PSIyLjUiIHN0eWxlPSJzdHJva2U6IzE4MTgxODtzdHJva2Utd2lkdGg6MS4wOyIgd2lkdGg9IjEwOCIgeD0iNjM0IiB5PSI3NDQuOTg0NCIvPjx0ZXh0IGZpbGw9IiMwMDAwMDAiIGZvbnQtZmFtaWx5PSJNaWNyb3NvZnQgWWFIZWkiIGZvbnQtc2l6ZT0iMTQiIGZvbnQtc3R5bGU9Iml0YWxpYyIgbGVuZ3RoQWRqdXN0PSJzcGFjaW5nIiB0ZXh0TGVuZ3RoPSI0NCIgeD0iNjY2IiB5PSI3NjAuMjE4OCI+JiMxNzE7JiMyMzM4NDsmIzIwNjQ4OyYjMTg3OzwvdGV4dD48dGV4dCBmaWxsPSIjMDAwMDAwIiBmb250LWZhbWlseT0iTWljcm9zb2Z0IFlhSGVpIiBmb250LXNpemU9IjE0IiBmb250LXdlaWdodD0iYm9sZCIgbGVuZ3RoQWRqdXN0PSJzcGFjaW5nIiB0ZXh0TGVuZ3RoPSI3MCIgeD0iNjUzIiB5PSI3NzUuMjAzMSI+SGFkb29wJiMzODU5ODsmIzMyNjc2OzwvdGV4dD48L2c+PCEtLWVudGl0eSA/Pz8/Pz8tLT48ZyBpZD0iZWxlbV8mIzI5OTkyOyYjMjUxNDM7JiMzNDg5MjsmIzIwMDI2OyYjMjYwODU7JiMyNDUzNTsiPjxyZWN0IGZpbGw9IiNGMEZGRjAiIGhlaWdodD0iNDkuOTY4OCIgcng9IjIuNSIgcnk9IjIuNSIgc3R5bGU9InN0cm9rZTojMTgxODE4O3N0cm9rZS13aWR0aDowLjU7IiB3aWR0aD0iMTA0IiB4PSIyMTIiIHk9IjgzLjk4NDQiLz48dGV4dCBmaWxsPSIjMDAwMDAwIiBmb250LWZhbWlseT0iTWljcm9zb2Z0IFlhSGVpIiBmb250LXNpemU9IjE0IiBmb250LXN0eWxlPSJpdGFsaWMiIGxlbmd0aEFkanVzdD0ic3BhY2luZyIgdGV4dExlbmd0aD0iNTgiIHg9IjIzNSIgeT0iMTA3LjIxODgiPiYjMTcxOyYjMjU5Njg7JiMyNTQ1NDsmIzI4MzA0OyYjMTg3OzwvdGV4dD48dGV4dCBmaWxsPSIjMDAwMDAwIiBmb250LWZhbWlseT0iTWljcm9zb2Z0IFlhSGVpIiBmb250LXNpemU9IjE0IiBsZW5ndGhBZGp1c3Q9InNwYWNpbmciIHRleHRMZW5ndGg9Ijg0IiB4PSIyMjIiIHk9IjEyMi4yMDMxIj4mIzI5OTkyOyYjMjUxNDM7JiMzNDg5MjsmIzIwMDI2OyYjMjYwODU7JiMyNDUzNTs8L3RleHQ+PC9nPjwhLS1lbnRpdHkgPz8/Pz8/LS0+PGcgaWQ9ImVsZW1fJiMyOTIyODsmIzM0NDExOyYjMzU3NzU7JiMzODM4MjsmIzI2MDg1OyYjMjQ1MzU7Ij48cmVjdCBmaWxsPSIjRjBGRkYwIiBoZWlnaHQ9IjQ5Ljk2ODgiIHJ4PSIyLjUiIHJ5PSIyLjUiIHN0eWxlPSJzdHJva2U6IzE4MTgxODtzdHJva2Utd2lkdGg6MC41OyIgd2lkdGg9IjEwNCIgeD0iMzUxIiB5PSI4My45ODQ0Ii8+PHRleHQgZmlsbD0iIzAwMDAwMCIgZm9udC1mYW1pbHk9Ik1pY3Jvc29mdCBZYUhlaSIgZm9udC1zaXplPSIxNCIgZm9udC1zdHlsZT0iaXRhbGljIiBsZW5ndGhBZGp1c3Q9InNwYWNpbmciIHRleHRMZW5ndGg9IjU4IiB4PSIzNzQiIHk9IjEwNy4yMTg4Ij4mIzE3MTsmIzI1OTY4OyYjMjU0NTQ7JiMyODMwNDsmIzE4Nzs8L3RleHQ+PHRleHQgZmlsbD0iIzAwMDAwMCIgZm9udC1mYW1pbHk9Ik1pY3Jvc29mdCBZYUhlaSIgZm9udC1zaXplPSIxNCIgbGVuZ3RoQWRqdXN0PSJzcGFjaW5nIiB0ZXh0TGVuZ3RoPSI4NCIgeD0iMzYxIiB5PSIxMjIuMjAzMSI+JiMyOTIyODsmIzM0NDExOyYjMzU3NzU7JiMzODM4MjsmIzI2MDg1OyYjMjQ1MzU7PC90ZXh0PjwvZz48IS0tZW50aXR5ID8/Pz8/Py0tPjxnIGlkPSJlbGVtXyYjMjM0MzM7JiMyMDg0MDsmIzIzNDU3OyYjMzU3NDU7JiMyNjA4NTsmIzI0NTM1OyI+PHJlY3QgZmlsbD0iI0YwRkZGMCIgaGVpZ2h0PSI0OS45Njg4IiByeD0iMi41IiByeT0iMi41IiBzdHlsZT0ic3Ryb2tlOiMxODE4MTg7c3Ryb2tlLXdpZHRoOjAuNTsiIHdpZHRoPSIxMDQiIHg9IjIxMiIgeT0iMzA0LjQ4NDQiLz48dGV4dCBmaWxsPSIjMDAwMDAwIiBmb250LWZhbWlseT0iTWljcm9zb2Z0IFlhSGVpIiBmb250LXNpemU9IjE0IiBmb250LXN0eWxlPSJpdGFsaWMiIGxlbmd0aEFkanVzdD0ic3BhY2luZyIgdGV4dExlbmd0aD0iNTgiIHg9IjIzNSIgeT0iMzI3LjcxODgiPiYjMTcxOyYjMjU5Njg7JiMyNTQ1NDsmIzI4MzA0OyYjMTg3OzwvdGV4dD48dGV4dCBmaWxsPSIjMDAwMDAwIiBmb250LWZhbWlseT0iTWljcm9zb2Z0IFlhSGVpIiBmb250LXNpemU9IjE0IiBsZW5ndGhBZGp1c3Q9InNwYWNpbmciIHRleHRMZW5ndGg9Ijg0IiB4PSIyMjIiIHk9IjM0Mi43MDMxIj4mIzIzNDMzOyYjMjA4NDA7JiMyMzQ1NzsmIzM1NzQ1OyYjMjYwODU7JiMyNDUzNTs8L3RleHQ+PC9nPjwhLS1lbnRpdHkgPz8/Pz8/Py0tPjxnIGlkPSJlbGVtXyYjMzMyNTg7JiMyMzQ1MDsmIzIwMDQxOyYjMzUyOTk7JiMyNjUxMjsmIzM1MjY4OyYjMjEwMTc7Ij48cGF0aCBkPSJNNzM0LDMxNy40ODQ0IEM3MzQsMzA3LjQ4NDQgNzkzLDMwNy40ODQ0IDc5MywzMDcuNDg0NCBDNzkzLDMwNy40ODQ0IDg1MiwzMDcuNDg0NCA4NTIsMzE3LjQ4NDQgTDg1MiwzNDEuNDY4OCBDODUyLDM1MS40Njg4IDc5MywzNTEuNDY4OCA3OTMsMzUxLjQ2ODggQzc5MywzNTEuNDY4OCA3MzQsMzUxLjQ2ODggNzM0LDM0MS40Njg4IEw3MzQsMzE3LjQ4NDQgIiBmaWxsPSIjRkZFNEUxIiBzdHlsZT0ic3Ryb2tlOiMxODE4MTg7c3Ryb2tlLXdpZHRoOjAuNTsiLz48cGF0aCBkPSJNNzM0LDMxNy40ODQ0IEM3MzQsMzI3LjQ4NDQgNzkzLDMyNy40ODQ0IDc5MywzMjcuNDg0NCBDNzkzLDMyNy40ODQ0IDg1MiwzMjcuNDg0NCA4NTIsMzE3LjQ4NDQgIiBmaWxsPSJub25lIiBzdHlsZT0ic3Ryb2tlOiMxODE4MTg7c3Ryb2tlLXdpZHRoOjAuNTsiLz48dGV4dCBmaWxsPSIjMDAwMDAwIiBmb250LWZhbWlseT0iTWljcm9zb2Z0IFlhSGVpIiBmb250LXNpemU9IjE0IiBsZW5ndGhBZGp1c3Q9InNwYWNpbmciIHRleHRMZW5ndGg9Ijk4IiB4PSI3NDQiIHk9IjM0NC43MTg4Ij4mIzMzMjU4OyYjMjM0NTA7JiMyMDA0MTsmIzM1Mjk5OyYjMjY1MTI7JiMzNTI2ODsmIzIxMDE3OzwvdGV4dD48L2c+PGcgaWQ9ImVsZW1fR01OOSI+PHBhdGggZD0iTTg4NywzMTAuNDg0NCBMODg3LDMyNS40ODQ0IEw4NTIuMjgsMzI5LjQ4NDQgTDg4NywzMzMuNDg0NCBMODg3LDM0OC4zMTI1IEEwLDAgMCAwIDAgODg3LDM0OC4zMTI1IEwxMDAxLDM0OC4zMTI1IEEwLDAgMCAwIDAgMTAwMSwzNDguMzEyNSBMMTAwMSwzMjAuNDg0NCBMOTkxLDMxMC40ODQ0IEw4ODcsMzEwLjQ4NDQgQTAsMCAwIDAgMCA4ODcsMzEwLjQ4NDQgIiBmaWxsPSIjRkVGRkREIiBzdHlsZT0ic3Ryb2tlOiMxODE4MTg7c3Ryb2tlLXdpZHRoOjAuNTsiLz48cGF0aCBkPSJNOTkxLDMxMC40ODQ0IEw5OTEsMzIwLjQ4NDQgTDEwMDEsMzIwLjQ4NDQgTDk5MSwzMTAuNDg0NCAiIGZpbGw9IiNGRUZGREQiIHN0eWxlPSJzdHJva2U6IzE4MTgxODtzdHJva2Utd2lkdGg6MC41OyIvPjx0ZXh0IGZpbGw9IiMwMDAwMDAiIGZvbnQtZmFtaWx5PSJNaWNyb3NvZnQgWWFIZWkiIGZvbnQtc2l6ZT0iMTMiIGxlbmd0aEFkanVzdD0ic3BhY2luZyIgdGV4dExlbmd0aD0iOTEiIHg9Ijg5MyIgeT0iMzI3Ljc3MzQiPiYjMjc0OTE7JiMyMTAxNzsmIzM0OTIwOyYjMzY3OTg7JiMyNDMzNTsmIzM2ODA3OyYjMjgzODg7PC90ZXh0Pjx0ZXh0IGZpbGw9IiMwMDAwMDAiIGZvbnQtZmFtaWx5PSJNaWNyb3NvZnQgWWFIZWkiIGZvbnQtc2l6ZT0iMTMiIGxlbmd0aEFkanVzdD0ic3BhY2luZyIgdGV4dExlbmd0aD0iOTMiIHg9Ijg5MyIgeT0iMzQxLjY4NzUiPiYjMjYwODA7JiMyNTkyODsmIzI1OTY4OyYjMjU0NTQ7JiMyOTU3NTsmIzg4MDU7OTglPC90ZXh0PjwvZz48IS0tZW50aXR5ID8/Pz9cbjEwPz8vPy0tPjxnIGlkPSJlbGVtXyYjMjM3OTI7JiMyMDU0MDsmIzIyNzg4OyYjMjk3MDI7XG4xMCYjMTk5NzU7JiMyNjQ2NTsvJiMzMTE4NjsiPjxwYXRoIGQ9Ik01OTQuNSwzMDkuOTg0NCBDNTk0LjUsMjk5Ljk4NDQgNjM2LDI5OS45ODQ0IDYzNiwyOTkuOTg0NCBDNjM2LDI5OS45ODQ0IDY3Ny41LDI5OS45ODQ0IDY3Ny41LDMwOS45ODQ0IEw2NzcuNSwzNDguOTUzMSBDNjc3LjUsMzU4Ljk1MzEgNjM2LDM1OC45NTMxIDYzNiwzNTguOTUzMSBDNjM2LDM1OC45NTMxIDU5NC41LDM1OC45NTMxIDU5NC41LDM0OC45NTMxIEw1OTQuNSwzMDkuOTg0NCAiIGZpbGw9IiNGRkZBQ0QiIHN0eWxlPSJzdHJva2U6IzE4MTgxODtzdHJva2Utd2lkdGg6MC41OyIvPjxwYXRoIGQ9Ik01OTQuNSwzMDkuOTg0NCBDNTk0LjUsMzE5Ljk4NDQgNjM2LDMxOS45ODQ0IDYzNiwzMTkuOTg0NCBDNjM2LDMxOS45ODQ0IDY3Ny41LDMxOS45ODQ0IDY3Ny41LDMwOS45ODQ0ICIgZmlsbD0ibm9uZSIgc3R5bGU9InN0cm9rZTojMTgxODE4O3N0cm9rZS13aWR0aDowLjU7Ii8+PHRleHQgZmlsbD0iIzAwMDAwMCIgZm9udC1mYW1pbHk9Ik1pY3Jvc29mdCBZYUhlaSIgZm9udC1zaXplPSIxNCIgbGVuZ3RoQWRqdXN0PSJzcGFjaW5nIiB0ZXh0TGVuZ3RoPSI1NiIgeD0iNjA0LjUiIHk9IjMzNy4yMTg4Ij4mIzIzNzkyOyYjMjA1NDA7JiMyMjc4ODsmIzI5NzAyOzwvdGV4dD48dGV4dCBmaWxsPSIjMDAwMDAwIiBmb250LWZhbWlseT0iTWljcm9zb2Z0IFlhSGVpIiBmb250LXNpemU9IjE0IiBsZW5ndGhBZGp1c3Q9InNwYWNpbmciIHRleHRMZW5ndGg9IjYzIiB4PSI2MDQuNSIgeT0iMzUyLjIwMzEiPjEwJiMxOTk3NTsmIzI2NDY1Oy8mIzMxMTg2OzwvdGV4dD48L2c+PCEtLWVudGl0eSAxPz8/Lz8tLT48ZyBpZD0iZWxlbV8xJiMyMDE1OTsmIzI2MDg1OyYjMjQ1MzU7LyYjMjI4MjU7Ij48cGF0aCBkPSJNMzk4LDU4NC45ODQ0IEMzOTgsNTc0Ljk4NDQgNDQzLDU3NC45ODQ0IDQ0Myw1NzQuOTg0NCBDNDQzLDU3NC45ODQ0IDQ4OCw1NzQuOTg0NCA0ODgsNTg0Ljk4NDQgTDQ4OCw2MDguOTY4OCBDNDg4LDYxOC45Njg4IDQ0Myw2MTguOTY4OCA0NDMsNjE4Ljk2ODggQzQ0Myw2MTguOTY4OCAzOTgsNjE4Ljk2ODggMzk4LDYwOC45Njg4IEwzOTgsNTg0Ljk4NDQgIiBmaWxsPSIjRkZGQUNEIiBzdHlsZT0ic3Ryb2tlOiMxODE4MTg7c3Ryb2tlLXdpZHRoOjAuNTsiLz48cGF0aCBkPSJNMzk4LDU4NC45ODQ0IEMzOTgsNTk0Ljk4NDQgNDQzLDU5NC45ODQ0IDQ0Myw1OTQuOTg0NCBDNDQzLDU5NC45ODQ0IDQ4OCw1OTQuOTg0NCA0ODgsNTg0Ljk4NDQgIiBmaWxsPSJub25lIiBzdHlsZT0ic3Ryb2tlOiMxODE4MTg7c3Ryb2tlLXdpZHRoOjAuNTsiLz48dGV4dCBmaWxsPSIjMDAwMDAwIiBmb250LWZhbWlseT0iTWljcm9zb2Z0IFlhSGVpIiBmb250LXNpemU9IjE0IiBsZW5ndGhBZGp1c3Q9InNwYWNpbmciIHRleHRMZW5ndGg9IjcwIiB4PSI0MDgiIHk9IjYxMi4yMTg4Ij4xJiMyMDE1OTsmIzI2MDg1OyYjMjQ1MzU7LyYjMjI4MjU7PC90ZXh0PjwvZz48IS0tZW50aXR5ID8/Pz8/Py0tPjxnIGlkPSJlbGVtXyYjMzUyODI7JiMzMzM5NDsmIzIwOTk4OyYjMjQwNjc7JiMyMDk5ODsmIzI2NTEyOyI+PHBvbHlnb24gZmlsbD0iI0ZGREFCOSIgcG9pbnRzPSI1NSw1ODQuNDg0NCw2NSw1NzQuNDg0NCwxNzksNTc0LjQ4NDQsMTc5LDYwOS40Njg4LDE2OSw2MTkuNDY4OCw1NSw2MTkuNDY4OCw1NSw1ODQuNDg0NCIgc3R5bGU9InN0cm9rZTojMTgxODE4O3N0cm9rZS13aWR0aDowLjU7Ii8+PGxpbmUgc3R5bGU9InN0cm9rZTojMTgxODE4O3N0cm9rZS13aWR0aDowLjU7IiB4MT0iMTY5IiB4Mj0iMTc5IiB5MT0iNTg0LjQ4NDQiIHkyPSI1NzQuNDg0NCIvPjxsaW5lIHN0eWxlPSJzdHJva2U6IzE4MTgxODtzdHJva2Utd2lkdGg6MC41OyIgeDE9IjU1IiB4Mj0iMTY5IiB5MT0iNTg0LjQ4NDQiIHkyPSI1ODQuNDg0NCIvPjxsaW5lIHN0eWxlPSJzdHJva2U6IzE4MTgxODtzdHJva2Utd2lkdGg6MC41OyIgeDE9IjE2OSIgeDI9IjE2OSIgeTE9IjU4NC40ODQ0IiB5Mj0iNjE5LjQ2ODgiLz48dGV4dCBmaWxsPSIjMDAwMDAwIiBmb250LWZhbWlseT0iTWljcm9zb2Z0IFlhSGVpIiBmb250LXNpemU9IjE0IiBsZW5ndGhBZGp1c3Q9InNwYWNpbmciIHRleHRMZW5ndGg9Ijg0IiB4PSI3MCIgeT0iNjA3LjcxODgiPiYjMzUyODI7JiMzMzM5NDsmIzIwOTk4OyYjMjQwNjc7JiMyMDk5ODsmIzI2NTEyOzwvdGV4dD48L2c+PCEtLWVudGl0eSA/Pz8/XG5VQVBhcnNlci5qcy0tPjxnIGlkPSJlbGVtXyYjMzI0NTY7JiMzMTQ3MTsmIzM1NzgyOyYjMjEwMzU7XG5VQVBhcnNlci5qcyI+PHBvbHlnb24gZmlsbD0iI0ZGREFCOSIgcG9pbnRzPSIyMTQuNSw1NzYuOTg0NCwyMjQuNSw1NjYuOTg0NCwzMzEuNSw1NjYuOTg0NCwzMzEuNSw2MTYuOTUzMSwzMjEuNSw2MjYuOTUzMSwyMTQuNSw2MjYuOTUzMSwyMTQuNSw1NzYuOTg0NCIgc3R5bGU9InN0cm9rZTojMTgxODE4O3N0cm9rZS13aWR0aDowLjU7Ii8+PGxpbmUgc3R5bGU9InN0cm9rZTojMTgxODE4O3N0cm9rZS13aWR0aDowLjU7IiB4MT0iMzIxLjUiIHgyPSIzMzEuNSIgeTE9IjU3Ni45ODQ0IiB5Mj0iNTY2Ljk4NDQiLz48bGluZSBzdHlsZT0ic3Ryb2tlOiMxODE4MTg7c3Ryb2tlLXdpZHRoOjAuNTsiIHgxPSIyMTQuNSIgeDI9IjMyMS41IiB5MT0iNTc2Ljk4NDQiIHkyPSI1NzYuOTg0NCIvPjxsaW5lIHN0eWxlPSJzdHJva2U6IzE4MTgxODtzdHJva2Utd2lkdGg6MC41OyIgeDE9IjMyMS41IiB4Mj0iMzIxLjUiIHkxPSI1NzYuOTg0NCIgeTI9IjYyNi45NTMxIi8+PHRleHQgZmlsbD0iIzAwMDAwMCIgZm9udC1mYW1pbHk9Ik1pY3Jvc29mdCBZYUhlaSIgZm9udC1zaXplPSIxNCIgbGVuZ3RoQWRqdXN0PSJzcGFjaW5nIiB0ZXh0TGVuZ3RoPSI1NiIgeD0iMjI5LjUiIHk9IjYwMC4yMTg4Ij4mIzMyNDU2OyYjMzE0NzE7JiMzNTc4MjsmIzIxMDM1OzwvdGV4dD48dGV4dCBmaWxsPSIjMDAwMDAwIiBmb250LWZhbWlseT0iTWljcm9zb2Z0IFlhSGVpIiBmb250LXNpemU9IjE0IiBsZW5ndGhBZGp1c3Q9InNwYWNpbmciIHRleHRMZW5ndGg9Ijc3IiB4PSIyMjkuNSIgeT0iNjE1LjIwMzEiPlVBUGFyc2VyLmpzPC90ZXh0PjwvZz48IS0tZW50aXR5ID8/Pz8/Py0tPjxnIGlkPSJlbGVtXyYjMzU3NzU7JiMzODM4MjsmIzM2MzM1OyYjMjQ0NTI7JiMzNjgyNDsmIzIxNDA3OyI+PHBvbHlnb24gZmlsbD0iI0ZGREFCOSIgcG9pbnRzPSI1NSw4MDkuOTg0NCw2NSw3OTkuOTg0NCwxNzksNzk5Ljk4NDQsMTc5LDgzNC45Njg4LDE2OSw4NDQuOTY4OCw1NSw4NDQuOTY4OCw1NSw4MDkuOTg0NCIgc3R5bGU9InN0cm9rZTojMTgxODE4O3N0cm9rZS13aWR0aDowLjU7Ii8+PGxpbmUgc3R5bGU9InN0cm9rZTojMTgxODE4O3N0cm9rZS13aWR0aDowLjU7IiB4MT0iMTY5IiB4Mj0iMTc5IiB5MT0iODA5Ljk4NDQiIHkyPSI3OTkuOTg0NCIvPjxsaW5lIHN0eWxlPSJzdHJva2U6IzE4MTgxODtzdHJva2Utd2lkdGg6MC41OyIgeDE9IjU1IiB4Mj0iMTY5IiB5MT0iODA5Ljk4NDQiIHkyPSI4MDkuOTg0NCIvPjxsaW5lIHN0eWxlPSJzdHJva2U6IzE4MTgxODtzdHJva2Utd2lkdGg6MC41OyIgeDE9IjE2OSIgeDI9IjE2OSIgeTE9IjgwOS45ODQ0IiB5Mj0iODQ0Ljk2ODgiLz48dGV4dCBmaWxsPSIjMDAwMDAwIiBmb250LWZhbWlseT0iTWljcm9zb2Z0IFlhSGVpIiBmb250LXNpemU9IjE0IiBsZW5ndGhBZGp1c3Q9InNwYWNpbmciIHRleHRMZW5ndGg9Ijg0IiB4PSI3MCIgeT0iODMzLjIxODgiPiYjMzU3NzU7JiMzODM4MjsmIzM2MzM1OyYjMjQ0NTI7JiMzNjgyNDsmIzIxNDA3OzwvdGV4dD48L2c+PCEtLWVudGl0eSA/Pz8/P1xuPz8/Py0tPjxnIGlkPSJlbGVtXyYjMzA3MDE7JiMyMDQ0OTsmIzM5NTY0OyYjMzU3Nzc7JiMzMDcyMTtcbiYjMjExNjA7JiMyNDU3NzsmIzIwMTk2OyYjMjkyNjA7Ij48cGF0aCBkPSJNNzgyLDgwMi45ODQ0IEM3ODIsNzkyLjk4NDQgODI3LDc5Mi45ODQ0IDgyNyw3OTIuOTg0NCBDODI3LDc5Mi45ODQ0IDg3Miw3OTIuOTg0NCA4NzIsODAyLjk4NDQgTDg3Miw4NDEuOTUzMSBDODcyLDg1MS45NTMxIDgyNyw4NTEuOTUzMSA4MjcsODUxLjk1MzEgQzgyNyw4NTEuOTUzMSA3ODIsODUxLjk1MzEgNzgyLDg0MS45NTMxIEw3ODIsODAyLjk4NDQgIiBmaWxsPSIjRkZGQUNEIiBzdHlsZT0ic3Ryb2tlOiMxODE4MTg7c3Ryb2tlLXdpZHRoOjAuNTsiLz48cGF0aCBkPSJNNzgyLDgwMi45ODQ0IEM3ODIsODEyLjk4NDQgODI3LDgxMi45ODQ0IDgyNyw4MTIuOTg0NCBDODI3LDgxMi45ODQ0IDg3Miw4MTIuOTg0NCA4NzIsODAyLjk4NDQgIiBmaWxsPSJub25lIiBzdHlsZT0ic3Ryb2tlOiMxODE4MTg7c3Ryb2tlLXdpZHRoOjAuNTsiLz48dGV4dCBmaWxsPSIjMDAwMDAwIiBmb250LWZhbWlseT0iTWljcm9zb2Z0IFlhSGVpIiBmb250LXNpemU9IjE0IiBsZW5ndGhBZGp1c3Q9InNwYWNpbmciIHRleHRMZW5ndGg9IjcwIiB4PSI3OTIiIHk9IjgzMC4yMTg4Ij4mIzMwNzAxOyYjMjA0NDk7JiMzOTU2NDsmIzM1Nzc3OyYjMzA3MjE7PC90ZXh0Pjx0ZXh0IGZpbGw9IiMwMDAwMDAiIGZvbnQtZmFtaWx5PSJNaWNyb3NvZnQgWWFIZWkiIGZvbnQtc2l6ZT0iMTQiIGxlbmd0aEFkanVzdD0ic3BhY2luZyIgdGV4dExlbmd0aD0iNTYiIHg9Ijc5MiIgeT0iODQ1LjIwMzEiPiYjMjExNjA7JiMyNDU3NzsmIzIwMTk2OyYjMjkyNjA7PC90ZXh0PjwvZz48IS0tZW50aXR5ID8/Pz9cbj8/PzM/LS0+PGcgaWQ9ImVsZW1fJiMyMzQ1NzsmIzM1NzQ1OyYjMjYwODU7JiMyNDUzNTtcbiYjMjA0NDU7JiMzMDA0MTsmIzg4MDU7MyYjMjQxODA7Ij48cGF0aCBkPSJNNjUwLDgwMi45ODQ0IEM2NTAsNzkyLjk4NDQgNjg4LDc5Mi45ODQ0IDY4OCw3OTIuOTg0NCBDNjg4LDc5Mi45ODQ0IDcyNiw3OTIuOTg0NCA3MjYsODAyLjk4NDQgTDcyNiw4NDEuOTUzMSBDNzI2LDg1MS45NTMxIDY4OCw4NTEuOTUzMSA2ODgsODUxLjk1MzEgQzY4OCw4NTEuOTUzMSA2NTAsODUxLjk1MzEgNjUwLDg0MS45NTMxIEw2NTAsODAyLjk4NDQgIiBmaWxsPSIjRkZGQUNEIiBzdHlsZT0ic3Ryb2tlOiMxODE4MTg7c3Ryb2tlLXdpZHRoOjAuNTsiLz48cGF0aCBkPSJNNjUwLDgwMi45ODQ0IEM2NTAsODEyLjk4NDQgNjg4LDgxMi45ODQ0IDY4OCw4MTIuOTg0NCBDNjg4LDgxMi45ODQ0IDcyNiw4MTIuOTg0NCA3MjYsODAyLjk4NDQgIiBmaWxsPSJub25lIiBzdHlsZT0ic3Ryb2tlOiMxODE4MTg7c3Ryb2tlLXdpZHRoOjAuNTsiLz48dGV4dCBmaWxsPSIjMDAwMDAwIiBmb250LWZhbWlseT0iTWljcm9zb2Z0IFlhSGVpIiBmb250LXNpemU9IjE0IiBsZW5ndGhBZGp1c3Q9InNwYWNpbmciIHRleHRMZW5ndGg9IjU2IiB4PSI2NjAiIHk9IjgzMC4yMTg4Ij4mIzIzNDU3OyYjMzU3NDU7JiMyNjA4NTsmIzI0NTM1OzwvdGV4dD48dGV4dCBmaWxsPSIjMDAwMDAwIiBmb250LWZhbWlseT0iTWljcm9zb2Z0IFlhSGVpIiBmb250LXNpemU9IjE0IiBsZW5ndGhBZGp1c3Q9InNwYWNpbmciIHRleHRMZW5ndGg9IjU2IiB4PSI2NjAiIHk9Ijg0NS4yMDMxIj4mIzIwNDQ1OyYjMzAwNDE7JiM4ODA1OzMmIzI0MTgwOzwvdGV4dD48L2c+PGcgaWQ9ImVsZW1fR01OMjkiPjxwYXRoIGQ9Ik01OTUsOTU0Ljk4NDQgTDU5NSwxMDIwLjY0MDYgQTAsMCAwIDAgMCA1OTUsMTAyMC42NDA2IEw3ODEsMTAyMC42NDA2IEEwLDAgMCAwIDAgNzgxLDEwMjAuNjQwNiBMNzgxLDk2NC45ODQ0IEw3NzEsOTU0Ljk4NDQgTDY5Miw5NTQuOTg0NCBMNjg4LDg1Mi4zMzQ0IEw2ODQsOTU0Ljk4NDQgTDU5NSw5NTQuOTg0NCBBMCwwIDAgMCAwIDU5NSw5NTQuOTg0NCAiIGZpbGw9IiNGRUZGREQiIHN0eWxlPSJzdHJva2U6IzE4MTgxODtzdHJva2Utd2lkdGg6MC41OyIvPjxwYXRoIGQ9Ik03NzEsOTU0Ljk4NDQgTDc3MSw5NjQuOTg0NCBMNzgxLDk2NC45ODQ0IEw3NzEsOTU0Ljk4NDQgIiBmaWxsPSIjRkVGRkREIiBzdHlsZT0ic3Ryb2tlOiMxODE4MTg7c3Ryb2tlLXdpZHRoOjAuNTsiLz48dGV4dCBmaWxsPSIjNDY4MkI0IiBmb250LWZhbWlseT0iTWljcm9zb2Z0IFlhSGVpIiBmb250LXNpemU9IjEzIiBsZW5ndGhBZGp1c3Q9InNwYWNpbmciIHRleHRMZW5ndGg9IjkxIiB4PSI2MDEiIHk9Ijk3Mi4yNzM0Ij4mIzI2NjgwOyYjMjQ1MTU7JiMyNTIxNjsmIzI2NDE1OyYjMjUzNTE7JiMyNjYzMTsmIzY1MzA2OzwvdGV4dD48dGV4dCBmaWxsPSIjMDAwMDAwIiBmb250LWZhbWlseT0iTWljcm9zb2Z0IFlhSGVpIiBmb250LXNpemU9IjEzIiBsZW5ndGhBZGp1c3Q9InNwYWNpbmciIHRleHRMZW5ndGg9IjE2NSIgeD0iNjAxIiB5PSI5ODYuMTg3NSI+MS4gJiMyNDMyMjsmIzI0MTIwOyYjMjc5Njk7JiMzNzMyNzsmIzM1NzgyOyYjMjEwMzU7JiMyMDkzNDsmIzMwODMwOyYjMjk1NzU7JiM4ODA1Ozk4JTwvdGV4dD48dGV4dCBmaWxsPSIjMDAwMDAwIiBmb250LWZhbWlseT0iTWljcm9zb2Z0IFlhSGVpIiBmb250LXNpemU9IjEzIiBsZW5ndGhBZGp1c3Q9InNwYWNpbmciIHRleHRMZW5ndGg9IjE1OCIgeD0iNjAxIiB5PSIxMDAwLjEwMTYiPjIuICYjMjU5MDM7JiMyNTM0NTszMDAwKyYjMzU3NzQ7JiMyMjc5MTsmIzMxODY3OyYjMjI0MTE7JiMzNTc4MjsmIzIxMDM1OzwvdGV4dD48dGV4dCBmaWxsPSIjMDAwMDAwIiBmb250LWZhbWlseT0iTWljcm9zb2Z0IFlhSGVpIiBmb250LXNpemU9IjEzIiBsZW5ndGhBZGp1c3Q9InNwYWNpbmciIHRleHRMZW5ndGg9IjE1MCIgeD0iNjAxIiB5PSIxMDE0LjAxNTYiPjMuICYjMjM0NTc7JiMzNTc0NTsmIzI2MDg1OyYjMjQ1MzU7JiMyMDg0MDsmIzM3MzI3OyYjMjExNTI7JiMyMzQ5NDsmIzIzMzg0OyYjMjA2NDg7PC90ZXh0PjwvZz48IS0tbGluayBMMCB0byBMMS0tPjxnIGlkPSJsaW5rX0wwX0wxIj48cGF0aCBkPSJNNDk4LjA2NDMsMTQxLjQ0ODYgQzQ5OC4xNDE0LDE0MS43NDk0IDQ5OC4yMTg5LDE0Mi4wNTE5IDQ5OC4yOTY4LDE0Mi4zNTU5IEM0OTguNjA4NSwxNDMuNTcyIDQ5OC45MjY5LDE0NC44MTQgNDk5LjI1MTQsMTQ2LjA4MDIgQzUwNC40NDQxLDE2Ni4zMzkxIDUxMS4yMjgxLDE5Mi44MDc1IDUxOC4wMTEzLDIxOS4yNzMxIEM1MjQuNzk0NCwyNDUuNzM4NyA1MzEuNTc2NiwyNzIuMjAxNiA1MzYuNzY1NSwyOTIuNDQ5MiBDNTM3LjA4OTgsMjkzLjcxNDcgNTM3LjQwNzksMjk0Ljk1NTkgNTM3LjcxOTMsMjk2LjE3MTMgQzUzNy43OTcyLDI5Ni40NzUyIDUzNi4zODUyLDI5MC45NjUyIDUzNi40NjIyLDI5MS4yNjU4ICIgZmlsbD0ibm9uZSIgaWQ9IkwwLXRvLUwxIiBzdHlsZT0ic3Ryb2tlOiMxODE4MTg7c3Ryb2tlLXdpZHRoOjEuMDsiLz48cG9seWdvbiBmaWxsPSIjMTgxODE4IiBwb2ludHM9IjUzNy45NTE3LDI5Ny4wNzgsNTM5LjU5MjMsMjg3LjM2NjcsNTM2LjcxMDUsMjkyLjIzNDUsNTMxLjg0MjcsMjg5LjM1MjcsNTM3Ljk1MTcsMjk3LjA3OCIgc3R5bGU9InN0cm9rZTojMTgxODE4O3N0cm9rZS13aWR0aDoxLjA7Ii8+PHRleHQgZmlsbD0iIzAwMDAwMCIgZm9udC1mYW1pbHk9Ik1pY3Jvc29mdCBZYUhlaSIgZm9udC1zaXplPSIxMyIgbGVuZ3RoQWRqdXN0PSJzcGFjaW5nIiB0ZXh0TGVuZ3RoPSI3OCIgeD0iNTA3IiB5PSIxNzcuMjczNCI+JiMyMTQwNzsmIzIyOTg3OyYjMjYwODU7JiMyNDUzNTsmIzM2NzU1OyYjMjA4Mzc7PC90ZXh0PjwvZz48IS0tbGluayBMMSB0byBMMi0tPjxnIGlkPSJsaW5rX0wxX0wyIj48cGF0aCBkPSJNNTQ2LDQwOC4xMTEgQzU0Niw0MDguNTgwMiA1NDYsNDA5LjA1MDUgNTQ2LDQwOS41MjE4IEM1NDYsNDExLjQwNzMgNTQ2LDQxMy4zMTAxIDU0Niw0MTUuMjI4NCBDNTQ2LDQzMC41NzQ4IDU0Niw0NDYuOTEwMyA1NDYsNDYzLjI0NTYgQzU0Niw0NjUuMjg3NSA1NDYsNDYxLjMyOTQgNTQ2LDQ2My4zNjk0ICIgZmlsbD0ibm9uZSIgaWQ9IkwxLXRvLUwyIiBzdHlsZT0ic3Ryb2tlOiMxODE4MTg7c3Ryb2tlLXdpZHRoOjEuMDsiLz48cG9seWdvbiBmaWxsPSIjMTgxODE4IiBwb2ludHM9IjU0Niw0NjkuMzY5NCw1NTAsNDYwLjM2OTQsNTQ2LDQ2NC4zNjk0LDU0Miw0NjAuMzY5NCw1NDYsNDY5LjM2OTQiIHN0eWxlPSJzdHJva2U6IzE4MTgxODtzdHJva2Utd2lkdGg6MS4wOyIvPjx0ZXh0IGZpbGw9IiMwMDAwMDAiIGZvbnQtZmFtaWx5PSJNaWNyb3NvZnQgWWFIZWkiIGZvbnQtc2l6ZT0iMTMiIGxlbmd0aEFkanVzdD0ic3BhY2luZyIgdGV4dExlbmd0aD0iOTEiIHg9IjU0NyIgeT0iNDQ0LjI3MzQiPiYjMzI0Njc7JiMyNjUwMDsmIzIxMjcwOyYjMjU5Njg7JiMyNTQ1NDsmIzIzMzg0OyYjMjA2NDg7PC90ZXh0PjwvZz48IS0tbGluayBMMiB0byBMMy0tPjxnIGlkPSJsaW5rX0wyX0wzIj48cGF0aCBkPSJNNTU0LjA2NDMsNjMwLjE2NTkgQzU1NC4xNDE0LDYzMC40NzM1IDU1NC4yMTg5LDYzMC43ODI5IDU1NC4yOTY4LDYzMS4wOTM5IEM1NTQuNjA4NSw2MzIuMzM3OSA1NTQuOTI2OSw2MzMuNjA4MyA1NTUuMjUxNCw2MzQuOTAzNCBDNTYwLjQ0NDEsNjU1LjYyNjMgNTY3LjIyODEsNjgyLjcwMDYgNTc0LjAxMTMsNzA5Ljc3MTkgQzU4MC43OTQ0LDczNi44NDMxIDU4Ny41NzY2LDc2My45MTEyIDU5Mi43NjU1LDc4NC42MjE2IEM1OTMuMDg5OCw3ODUuOTE2IDU5My40MDc5LDc4Ny4xODU1IDU5My43MTkzLDc4OC40Mjg3IEM1OTMuNzk3Miw3ODguNzM5NSA1OTIuNDE2NSw3ODMuMjI4NSA1OTIuNDkzNSw3ODMuNTM2ICIgZmlsbD0ibm9uZSIgaWQ9IkwyLXRvLUwzIiBzdHlsZT0ic3Ryb2tlOiMxODE4MTg7c3Ryb2tlLXdpZHRoOjEuMDsiLz48cG9seWdvbiBmaWxsPSIjMTgxODE4IiBwb2ludHM9IjU5My45NTE3LDc4OS4zNTYxLDU5NS42NDQ1LDc3OS42NTM4LDU5Mi43MzY1LDc4NC41MDYsNTg3Ljg4NDMsNzgxLjU5ODEsNTkzLjk1MTcsNzg5LjM1NjEiIHN0eWxlPSJzdHJva2U6IzE4MTgxODtzdHJva2Utd2lkdGg6MS4wOyIvPjx0ZXh0IGZpbGw9IiMwMDAwMDAiIGZvbnQtZmFtaWx5PSJNaWNyb3NvZnQgWWFIZWkiIGZvbnQtc2l6ZT0iMTMiIGxlbmd0aEFkanVzdD0ic3BhY2luZyIgdGV4dExlbmd0aD0iNzgiIHg9IjU2NSIgeT0iNjcwLjI3MzQiPiYjMjM0MzM7JiMyMDg0MDsmIzIzNDU3OyYjMzU3NDU7JiMyMjc4ODsmIzI5NzAyOzwvdGV4dD48L2c+PCEtLVNSQz1bYkxIUkpuRDE2N3RWTnA2ZnlTYzBCT01BWDkxR3c4UjRJcW9DM29QejZUZTVBc01OVDlTN09xV2VPaFY1MmFING0wa3FlUUdMUENsNUl3NUQtcnpDbHZkZmF0XzFzTGJJVXA0Y1BoQ2wtdHRkeDNkZC1zUnFjT1d3WHNEdTVhdFlxQ25xSjlqTm1zRFFMOGtYUV9BMF9LWHdpb0VhcFN2ZmdnOFEzdXJkS0dONWI5MjFyVWNlcWo4SUxnUm1WRElHRFRNdVpzU0x2QmVOMlNLcU5QaW9xNkN5ZUtIU2FYNG5FOVBpN0sxamdzNlFaRy05VWNhTGFXY29rcXhGb3hJeUh0UV9henJiSU1oSThuVlBGMjZsQk5BdjNnVEJCZUhyVERVRGRhbGVabzNhZWN5QjlGYzNQVEZycWdMM3hhQjNtcXRXbzBadHV2UGJzVHExSXR2WEVxVkNnWk1zaEYtMFdQTTJibU1taWlwQV9Ya3NxNlI0Q0dvdlBSZ1VRN2huVDdndmdxdGgxalFWZTVrejdmekRWME5SQU4xWWtuVVhDM1JtOURPdjlKQ0ZtTmZWbHFZbl8zeEZhRU1OOFJkWnVsLU4wX3ExWnNYTURPREZBcEJ6bjFYMnY3WVZycmNzbUFmTGdBb25jYWRBa1ExQWpaOWFDLWFPZUFsY3B6SjF4UzdoN0JwMHR0UG5UXzNLMzZ2aXhxNUlVQVFMM0tZU3NPTzNsZTFGN2t0STEtU2RpNVhuQjBUTFp4alVDaWNkeDRzUVZvRDRvZ0RadS04X3hLNHYybTc3c3gxS1EwUkxybmJLODhmcjhuQkk1SG1CWVJIa3NQOFNiOTFhcHEza2FrSWZOelFTZ1RzNHRFVHM2UHJzaHVIS0RpZDZnWTBOSGlJMFVTMy1XSWpvTEdsUml5WV9PUWFwM2U3STJtU2VvQ1Q3X1JUUmtjV3ZJTy1BaDlZMHY1NUdWSkp3MENUcTlUUnhMRnpSaXhFUXg0U0hnaWtpaldzaFV3clROUjZyeDZLcERjemRSQjJNWFd5UC1aTjNoMW1obmVLajBOSGktTnJaZGd4Q3dEdm5sUFBqN0FPdlc2UllHSExNMmNHbk5ZX2RRMmh6eG1XZFM1Wkp2bFcycXNna1ZKeFpXdHZ2VkIxeFBMaEVMTDJqcnB4SHBIcy1hTHd1LURnckNfbWN3RWFQaUdfSDRFQlhHRndMV3NGTDNOWHY4RjdsZWpwN294SXltSXlNSUJ6cHJqb0g4VjZJd0YzUTFBdG5ZSzVCYVpXeWF2ZlhRQkZJU0NZLTZPVWt6Vmk2LV9wejhvSEpXamVCaWg5OEZYUDlzWUdQeXJWYmxVSmZITDFQV2JBOVY4aXRwM0xkcGMwY1FCUmJQRk5yOGxBTVctOVVqemp6V3JiTG85ZHFqMG94aHZuLW9TalBNY0JXaVpXTmg2STBibnRYWVhlTTlfaXRdLS0+PC9nPjwvc3ZnPg==;" vertex="1" parent="1">
            <mxGeometry x="-120" y="-260" width="1055" height="1027" as="geometry" />
          </mxCell>
        </UserObject>
      </root>
    </mxGraphModel>
  </diagram>
</mxfile>
